<svg xmlns="http://www.w3.org/2000/svg" xmlns:xlink="http://www.w3.org/1999/xlink" viewBox="0 0 2003.9 2313.9"><defs><style>.cls-1,.cls-2,.cls-3{stroke:#000;stroke-miterlimit:10;stroke-width:40px;}.cls-1{fill:url(#linear-gradient);}.cls-2{fill:url(#linear-gradient-2);}.cls-3{fill:none;}</style><linearGradient id="linear-gradient" x1="20" y1="590.02" x2="1983.9" y2="1723.88" gradientUnits="userSpaceOnUse"><stop offset="0" stop-color="#838bc5"/><stop offset="1" stop-color="#662d91"/></linearGradient><linearGradient id="linear-gradient-2" x1="821.15" y1="1079.15" x2="1933.34" y2="1721.27" gradientUnits="userSpaceOnUse"><stop offset="0" stop-color="#00f0ff"/><stop offset="1" stop-color="#0080cc"/></linearGradient></defs><title>HEMC</title><g id="Line"><polygon class="cls-1" points="20 590.02 20 1723.88 1001.95 2290.81 1983.9 1723.88 1983.9 590.02 1001.95 23.09 20 590.02"/><path class="cls-2" d="M1328.53,845.16l351.24-154.73-37.63,253.4,225.8,143,316.12,5-353.75,807.86-333.68,140.5-336.19-175.62-426.51,5L440.88,1744a2.77,2.77,0,0,1-.14-5L809.2,1556l122.93-291Z" transform="translate(-415.37 -260.37)"/><line class="cls-3" x1="1001.95" y1="23.09" x2="913.16" y2="584.79"/><line class="cls-3" x1="393.82" y1="1295.62" x2="801.11" y2="331.44"/><line class="cls-3" x1="393.82" y1="1295.62" x2="20" y2="1028.99"/><line class="cls-3" x1="20" y1="1028.99" x2="978.21" y2="173.28"/><line class="cls-3" x1="1983.9" y1="1723.88" x2="1414.94" y2="1639.34"/><line class="cls-3" x1="523.6" y1="2014.64" x2="1414.94" y2="1639.34"/><line class="cls-3" x1="1504.25" y1="2000.81" x2="745.07" y2="1604.22"/><line class="cls-3" x1="364.33" y1="1922.68" x2="745.07" y2="1604.22"/><line class="cls-3" x1="318.56" y1="1609.23" x2="186.85" y2="1820.21"/><line class="cls-3" x1="1362.3" y1="231.14" x2="1264.4" y2="430.06"/><line class="cls-3" x1="1226.77" y1="683.46" x2="1666.22" y2="406.61"/><line class="cls-3" x1="1414.94" y1="1639.34" x2="1895.21" y2="542.54"/><line class="cls-3" x1="1666.22" y1="406.61" x2="1983.9" y2="1723.88"/></g></svg>